<svg width="185" height="185" viewBox="0 0 185 185" fill="none" xmlns="http://www.w3.org/2000/svg">
<path d="M113.939 11.7046L53.9541 126.605L74.3685 126.668L114.905 50.7904L185 185V156.318C185 154.111 184.489 151.938 183.512 149.997L113.939 11.7046Z" fill="white"/>
<path d="M125.387 153.535L116.405 137.478L66.7901 137.477L37.2298 137.478L108.06 0.00976341L92.47 1.01038e-06C90.2736 -0.00130061 88.2425 1.25509 87.1377 3.29864L5.98145 153.413L125.387 153.535Z" fill="white"/>
<path d="M0 178.363C0 182.029 2.76018 185 6.16545 185H172.772L114.768 73.6509L104.493 92.8088L127.651 135.958L143.884 164.699H0V178.363Z" fill="white"/>
</svg>
