<svg width="72" height="64" viewBox="0 0 72 64" fill="none" xmlns="http://www.w3.org/2000/svg">
<path d="M28.2423 64H0.536621V29.645C0.536621 20.4098 2.38366 13.3911 6.07775 8.58875C10.1412 3.60173 16.9753 0.738818 26.5799 0V16.3463C23.2552 16.3463 20.4847 17.7316 18.2682 20.5022C17.16 21.9798 16.6059 24.8427 16.6059 29.0909V34.355H28.2423V64ZM71.463 64H43.7574V29.645C43.7574 20.4098 45.4197 13.6681 48.7444 9.41992C53.1773 3.87879 60.1961 0.738818 69.8007 0V16.3463C64.0749 16.3463 60.8425 19.2092 60.1037 24.9351C59.919 25.6739 59.8267 27.0592 59.8267 29.0909V34.355H71.463V64Z" fill="#D83C3C"/>
</svg>
